<?xml version="1.0" encoding="UTF-8"?>
<svg id="Layer_1" xmlns="http://www.w3.org/2000/svg" version="1.1" viewBox="0 0 120.3 120.3">
  <!-- Generator: Adobe Illustrator 29.1.0, SVG Export Plug-In . SVG Version: 2.1.0 Build 142)  -->
  <defs>
    <style>
      .st0 {
        fill: #fff;
      }
    </style>
  </defs>
  <path class="st0" d="M3.7,60.1C3.8,28.9,29.1,3.6,60.3,3.7c31.2,0,56.4,25.4,56.4,56.6,0,31.2-25.4,56.4-56.6,56.4-31.2,0-56.4-25.4-56.4-56.6ZM60.3,76.4c0,.2.2.5.3.9,1.7,5.1,8.4,24.9,23.8,9,8.1-8.3,4.3-16.7-10.4-19.2,8.4,1.4,17.9-.9,20.5-10.3.7-2.7,2-19.2,2-21.4,0-11.2-9.8-7.7-15.8-3.1h0c-8.2,6.2-17,18.6-20.5,25.5l-.2.3c-3.3-6.8-12.3-19.6-20.6-25.9-6-4.5-15.8-8-15.8,3.1s1.3,18.7,2,21.4c2.6,9.3,12.1,11.7,20.5,10.3-14.7,2.5-18.5,10.8-10.4,19.2,15.4,15.8,22.1-4,23.8-9,.3-.9.5-1.4.5-1h.1Z"/>
</svg>