<?xml version="1.0" encoding="utf-8"?>
<!-- Generator: Adobe Illustrator 22.1.0, SVG Export Plug-In . SVG Version: 6.00 Build 0)  -->
<svg version="1.1" id="Layer_1" xmlns="http://www.w3.org/2000/svg" xmlns:xlink="http://www.w3.org/1999/xlink" x="0px" y="0px"
	 viewBox="0 0 120.3 120.3" style="enable-background:new 0 0 120.3 120.3;" xml:space="preserve">
<style type="text/css">
	.st0{fill:#FFFFFF;}
</style>
<path class="st0" d="M116.6,59.8c0,31.2-25.3,56.5-56.5,56.5C29,116.3,3.7,91,3.7,59.8S29,3.4,60.2,3.4
	C91.4,3.4,116.6,28.6,116.6,59.8z M74.9,26c-3.6,0-7.1-0.1-10.7,0c-7.7,0.2-12.4,5.1-12.9,12.6c-0.2,2.5-0.1,5.1-0.1,7.7
	c0,1.6,0,1.6-1.7,1.7c-1.5,0-2.9,0-4.4,0c-0.6,0-1,0.2-1,0.9c0,3.3,0,6.7,0,10c0,0.7,0.3,1,1,1c1.5,0,2.9,0,4.4,0
	c1.6,0,1.6,0,1.6,1.6c0,9.9,0,19.8,0,29.7c0,2.5,0,2.5,2.5,2.5c3.5,0,7.1,0,10.6,0c1.4,0,1.4,0,1.4-1.5c0-10.3,0-20.6,0-30.8
	c0-0.5,0-0.9,0.1-1.5c2.8,0,5.5,0,8.1,0c0.7,0,1-0.2,1.1-0.9c0.2-2.1,0.4-4.2,0.6-6.4c0.1-1.5,0.2-3.1,0.4-4.8c-3.6,0-7,0-10.4,0
	c0-2.3-0.2-4.6,0-6.7c0.2-2.3,1.7-3.4,4.1-3.5c1.5,0,3.1,0,4.6,0c0.6,0,1.2,0,1.8,0c0-4,0-7.7,0-11.6C75.5,26,75.2,26,74.9,26z"/>
</svg>
