<?xml version="1.0" encoding="utf-8"?>
<!-- Generator: Adobe Illustrator 22.1.0, SVG Export Plug-In . SVG Version: 6.00 Build 0)  -->
<svg version="1.1" id="Layer_1" xmlns="http://www.w3.org/2000/svg" xmlns:xlink="http://www.w3.org/1999/xlink" x="0px" y="0px"
	 viewBox="0 0 262.7 262.7" style="enable-background:new 0 0 262.7 262.7;" xml:space="preserve">
<style type="text/css">
	.st0{fill-rule:evenodd;clip-rule:evenodd;fill:#FFFFFF;}
</style>
<path class="st0" d="M262.7,131.4c0,72.5-58.8,131.4-131.4,131.4S0,203.9,0,131.4S58.8,0,131.4,0S262.7,58.8,262.7,131.4z M131.4,70
	c-20,0-22.3,0.1-30.2,0.4C93.8,70.8,89.9,72,87.2,73c-3.5,1.4-6,3-8.6,5.6c-2.6,2.6-4.2,5.1-5.6,8.6c-1,2.6-2.2,6.6-2.6,13.9
	c-0.4,7.9-0.4,10.3-0.4,30.2c0,20,0.1,22.3,0.4,30.2c0.3,7.3,1.6,11.3,2.6,13.9c1.4,3.5,3,6,5.6,8.6c2.6,2.6,5.1,4.2,8.6,5.6
	c2.6,1,6.6,2.2,13.9,2.6c7.9,0.4,10.3,0.4,30.2,0.4s22.3-0.1,30.2-0.4c7.3-0.3,11.3-1.6,13.9-2.6c3.5-1.4,6-3,8.6-5.6
	c2.6-2.6,4.2-5.1,5.6-8.6c1-2.6,2.2-6.6,2.6-13.9c0.4-7.9,0.4-10.3,0.4-30.2c0-20-0.1-22.3-0.4-30.2c-0.3-7.3-1.6-11.3-2.6-13.9
	c-1.4-3.5-3-6-5.6-8.6c-2.6-2.6-5.1-4.2-8.6-5.6c-2.6-1-6.6-2.2-13.9-2.6C153.7,70.1,151.3,70,131.4,70 M131.4,56.6
	c20.3,0,22.9,0.1,30.8,0.4c8,0.4,13.4,1.6,18.2,3.5c4.9,1.9,9.1,4.5,13.2,8.6c4.2,4.2,6.7,8.3,8.6,13.2c1.8,4.8,3.1,10.2,3.5,18.2
	c0.4,8,0.4,10.5,0.4,30.8c0,20.3-0.1,22.9-0.4,30.8c-0.4,8-1.6,13.4-3.5,18.2c-1.9,4.9-4.5,9.1-8.6,13.2c-4.2,4.2-8.3,6.7-13.2,8.6
	c-4.8,1.8-10.2,3.1-18.2,3.5c-8,0.4-10.5,0.5-30.8,0.5c-20.3,0-22.9-0.1-30.8-0.5c-8-0.4-13.4-1.6-18.2-3.5
	c-4.9-1.9-9.1-4.5-13.2-8.6c-4.2-4.2-6.7-8.3-8.6-13.2c-1.8-4.8-3.1-10.2-3.5-18.2c-0.4-8-0.4-10.5-0.4-30.8
	c0-20.3,0.1-22.9,0.4-30.8c0.4-8,1.6-13.4,3.5-18.2c1.9-4.9,4.5-9.1,8.6-13.2c4.2-4.2,8.3-6.7,13.2-8.6c4.8-1.8,10.2-3.1,18.2-3.5
	C108.5,56.6,111,56.6,131.4,56.6L131.4,56.6z M169.8,131.4c0,21.2-17.2,38.4-38.4,38.4c-21.2,0-38.4-17.2-38.4-38.4
	c0-21.2,17.2-38.4,38.4-38.4C152.6,92.9,169.8,110.1,169.8,131.4z M156.3,131.4c0-13.8-11.2-24.9-24.9-24.9
	c-13.8,0-24.9,11.2-24.9,24.9c0,13.8,11.2,24.9,24.9,24.9C145.1,156.3,156.3,145.1,156.3,131.4z M171.3,82.4c-5,0-9,4-9,9
	c0,5,4,9,9,9c5,0,9-4,9-9C180.3,86.5,176.2,82.4,171.3,82.4z"/>
</svg>
