<?xml version="1.0" encoding="utf-8"?>
<!-- Generator: Adobe Illustrator 22.1.0, SVG Export Plug-In . SVG Version: 6.00 Build 0)  -->
<svg version="1.1" id="Layer_1" xmlns="http://www.w3.org/2000/svg" xmlns:xlink="http://www.w3.org/1999/xlink" x="0px" y="0px"
	 viewBox="0 0 534.5 534.5" style="enable-background:new 0 0 534.5 534.5;" xml:space="preserve">
<style type="text/css">
	.st0{fill-rule:evenodd;clip-rule:evenodd;fill:#FFFFFF;}
</style>
<path class="st0" d="M267.2,15C127.9,15,15,127.9,15,267.3c0,139.3,112.9,252.2,252.2,252.2c139.3,0,252.3-112.9,252.3-252.2
	C519.5,127.9,406.6,15,267.2,15z M182.7,416.3c-18.3-0.3-36.7-0.2-55.1-0.1c-3.9,0.1-5.3-1.1-5.3-5.1c0.1-62,0.1-124,0-186
	c0-3.6,1-5.1,4.9-5c18.9,0.1,37.8,0.2,56.6,0c4.3,0,5,1.7,5,5.4c-0.1,31-0.1,62-0.1,93c0,30.5-0.1,61,0.1,91.5
	C188.8,414.6,187.8,416.4,182.7,416.3z M192.8,163.7c-0.6,13.9-11.4,26.3-26.1,29.7c-3.6,0.8-7.3,1-11,1.6
	c-19.1-0.4-32.9-10.9-36.4-28.1c-4.1-20.2,10.6-39.6,31.2-40.6c6.3-0.3,12.9,0,18.9,1.7C185.2,132.5,193.5,145.9,192.8,163.7z
	 M417,416.3c-18.4-0.2-36.8-0.3-55.1,0c-4.9,0.1-5.9-1.7-5.9-6.1c0.1-32.9,0.2-65.8,0-98.6c0-6.5-0.7-13.1-2.1-19.5
	c-2.6-11.6-9-20.5-21.3-23.1c-13-2.7-24.8,0.1-33.9,10.6c-5.7,6.6-9,14.1-9,23c0.1,35.4,0,70.8-0.1,106.2c0,7.5,0,7.5-7.5,7.5
	c-17.9,0-35.7-0.1-53.6,0.1c-3.8,0-5.2-0.9-5.2-5c0.1-62.1,0.2-124.1,0-186.1c0-4.1,1.4-5.1,5.2-5c18.5,0.1,37.1,0.2,55.6,0
	c4.2,0,5.7,1.4,5.5,5.5c-0.3,6.1-0.1,12.1-0.1,19.7c2.2-2.8,3.6-4.7,5.1-6.4c15.8-19.1,36.8-25.4,60.6-23.1
	c44.8,4.4,62.8,37,65.7,69.8c1.8,20.9,1.1,42.1,1.3,63.1c0.2,20.7-0.1,41.5,0.1,62.2C422.5,415.1,421.1,416.3,417,416.3z"/>
</svg>
