<?xml version="1.0" encoding="UTF-8"?>
<svg id="Layer_1" xmlns="http://www.w3.org/2000/svg" version="1.1" viewBox="0 0 120.3 120.3">
  <!-- Generator: Adobe Illustrator 29.1.0, SVG Export Plug-In . SVG Version: 2.1.0 Build 142)  -->
  <defs>
    <style>
      .st0 {
        fill: #fff;
      }
    </style>
  </defs>
  <path class="st0" d="M53.9,4c-19.8,2.1-37.6,15.1-45.6,33.6-5.2,11.9-6.1,25.7-2.4,38.3,4.6,15.8,16.3,29.1,31.6,35.7,11.9,5.2,25.7,6.1,38.3,2.4,18.9-5.5,33.8-21,38.7-40.3,7.6-30.3-11.1-61.2-41.4-68.4-6.7-1.6-12.5-2-19.2-1.3ZM54.7,39c4.8,6.4,8.9,11.7,9,11.7s5.2-5.3,11.1-11.7l10.8-11.7h6.1l-1.3,1.4c-.8.8-5.6,6.1-10.9,11.8-5.2,5.7-10.3,11.2-11.4,12.2l-1.8,1.9,14.1,18.8c7.8,10.3,14.1,18.9,14.1,19.1s-4.6.3-10.2.3h-10.3s-9.6-12.8-9.6-12.8c-6.6-8.8-9.7-12.6-10-12.4-.2.2-5.6,5.9-11.9,12.8l-11.5,12.5h-2.9c-1.6,0-2.9,0-2.9-.2s6-6.7,13.3-14.5c7.3-7.9,13.3-14.4,13.4-14.6,0-.2-5.9-8.3-13.3-18.1-7.3-9.8-13.4-17.9-13.4-17.9s4.6-.1,10.3-.1h10.3l8.7,11.7Z"/>
  <path class="st0" d="M34.6,32.4c.1.3,9.6,13,21,28.2l20.7,27.7h4.6c2.9,0,4.6-.1,4.5-.3,0-.2-9.5-12.9-20.9-28.2l-20.8-27.8h-4.7c-3.9,0-4.7,0-4.4.5h0Z"/>
</svg>