<?xml version="1.0" encoding="utf-8"?>
<!-- Generator: Adobe Illustrator 22.1.0, SVG Export Plug-In . SVG Version: 6.00 Build 0)  -->
<svg version="1.1" id="Layer_1" xmlns="http://www.w3.org/2000/svg" xmlns:xlink="http://www.w3.org/1999/xlink" x="0px" y="0px"
	 viewBox="0 0 262.7 262.7" style="enable-background:new 0 0 262.7 262.7;" xml:space="preserve">
<style type="text/css">
	.st0{fill-rule:evenodd;clip-rule:evenodd;fill:#FFFFFF;}
</style>
<path class="st0" d="M253.7,130.4c0,67.6-54.8,122.4-122.4,122.4S9,197.9,9,130.4S63.8,8,131.4,8S253.7,62.8,253.7,130.4z
	 M147,198.3c7,5.4,15.4,2.1,16.8-6.6c0.1-1,0.2-1.9,0.2-2.9c0-9.9,0.1-19.8,0.1-29.8c0-2.3-0.3-4.7-0.9-7c-2-7.4-9.5-9.8-15.6-5.2
	c-0.7,0.5-1.3,1-2.4,1.8c0-7.8,0-15.2,0-22.7c-3.7,0-7.1,0-10.9,0c0,1.1,0,2.1,0,3c0,9.1,0,18.2,0,27.3c0,13.8,0,27.6,0,41.5
	c0,1.8,0.6,2.5,2.4,2.4c1.9-0.1,3.7-0.1,5.6,0c2,0.1,3.5-0.2,2.9-3.3C146.1,197.6,146.5,198,147,198.3z M145.2,157.4
	c-0.1-2.4,1.5-3.1,3.3-3.5c1.8-0.4,3.1,0.7,3.8,2.4c0.3,0.7,0.3,1.6,0.3,2.4c0.1,9.5,0.1,19,0.1,28.5c0,1.6-0.1,3.7-2,4
	c-1.4,0.2-3.1-0.4-4.4-1.1c-0.6-0.3-1-1.6-1-2.5c-0.1-5.1,0-10.2,0-15.3c0,0,0,0,0,0C145.3,167.4,145.4,162.4,145.2,157.4z
	 M200.8,156.8c-0.3-4.5-2.2-8.6-6.4-10.9c-8.4-4.7-22.1-1.5-23.3,11.3c-0.9,10.3-0.5,20.8-0.1,31.2c0.2,5.6,3.2,10.1,8.7,12.2
	c5.9,2.3,11.7,1.7,16.5-2.5c5.5-4.8,4.8-11.4,4.5-18c-3.2,0-6.2-0.1-9.2,0.1c-0.6,0-1.5,1.1-1.6,1.7c-0.3,2-0.2,4-0.3,6.1
	c-0.1,2.2-1.3,3.4-3.6,3.5c-2.4,0.1-3.8-1.1-3.9-3.4c-0.1-4.4,0-8.9,0-13.6c6.1,0,12.3,0,18.7,0
	C200.8,168.2,201.1,162.5,200.8,156.8z M181.7,165.2c0.2-2.9,0.3-5.8,0.7-8.6c0.2-1.8,1.8-2.4,3.4-2.5c1.8,0,3.4,0.6,3.7,2.5
	c0.4,2.7,0.5,5.6,0.7,8.6C187.1,165.2,184.7,165.2,181.7,165.2z M114.4,197.4c-0.3,2.2,0.7,2.9,2.8,2.7c1.8-0.1,3.6-0.1,5.4,0
	c1.9,0.1,2.6-0.6,2.6-2.5c0-16.7,0-33.3,0-50c0-1.6-0.5-2.4-2.2-2.3c-1.9,0.1-3.9,0.2-5.8,0c-2.2-0.2-2.8,0.6-2.7,2.8
	c0.1,12-0.1,24.1,0.1,36.1c0,2.4-0.8,4-2.7,5c-1.2,0.6-2.8,1.1-4,0.8c-0.6-0.2-1.1-2.2-1.1-3.3c-0.1-12.5-0.1-25-0.1-37.6
	c0-3.7,0-3.7-3.7-3.7c-2.2,0-5.2-0.5-6.5,0.6c-1.1,1-0.5,4.1-0.5,6.3c0,13-0.1,26,0.1,39c0.1,8.8,6,12,13.6,7.4
	c1.6-1,3.1-2.3,4.8-3.7C114.3,196,114.5,196.7,114.4,197.4z M72.8,139.5c0,6.3,0,12.5,0,18.8c0,13.2,0,26.3,0,39.5
	c0,1.8,0.6,2.5,2.4,2.4c2.2-0.1,4.4-0.2,6.6,0c2.4,0.2,3-0.6,3-3c-0.1-18.9,0-37.9,0-56.8c0-0.9,0-1.9,0-3.1c3.5,0,6.7,0.1,9.8,0
	c0.6,0,1.8-0.6,1.8-1c0.1-3.4,0.1-6.8,0.1-10.3c-11.5,0-22.7,0-33.9,0.1c-0.5,0-1.4,1-1.4,1.6c-0.2,2.4,0,4.9-0.1,7.3
	c-0.1,1.8,0.4,2.5,2.3,2.4c3-0.1,6,0,9.3,0C72.8,138.2,72.8,138.8,72.8,139.5z M143.8,94.6c0-1.3,0-2.6,0-3.9c0-2.5,0-5,0-7.6
	c-0.1-8.8-6.4-14.1-15.2-12.6c-6.2,1-10.2,5.1-10.3,10.8c-0.1,8.5-0.1,17.1,0,25.6c0.1,4.7,1.9,8.6,6.2,10.9
	c9.3,4.8,19-0.9,19.2-11.3C143.9,102.5,143.8,98.5,143.8,94.6C143.8,94.6,143.8,94.6,143.8,94.6z M134.3,106.5c0,2.5-1.2,3.9-3.3,4
	c-2,0-3.2-1.3-3.2-3.8c0-8.2,0.1-16.4,0.2-24.6c0-2,1-3.1,3-3.1c2,0,3.3,1,3.3,3.1c0.1,4.1,0,8.3,0,12.4c0,0,0,0,0,0
	C134.3,98.5,134.3,102.5,134.3,106.5z M87.3,57.7c2.5,8.5,4.8,17.1,7.7,25.4c2.5,7.1,3.6,14.3,3.2,21.7c-0.1,2.2,0,4.4,0,6.6
	c0,6.7,0,6.7,6.8,6.7c3.4,0,3.5,0,3.5-3.5c0-6.8-0.1-13.7-0.1-20.5c0-1.3,0.2-2.6,0.5-3.8c3.3-10.7,6.6-21.4,9.9-32.1
	c0.3-0.9,0.4-1.8,0.7-3c-3.1,0-5.7,0.1-8.4,0c-1.5-0.1-2.1,0.6-2.4,2c-0.6,3-1.4,6-2.1,9c-1,4.2-2.1,8.4-3.1,12.5
	c-0.7-0.9-0.9-1.8-1.1-2.6c-1.6-6.3-3.2-12.6-4.9-18.9c-0.2-0.8-1-1.9-1.6-1.9c-2.9-0.2-5.8-0.1-9-0.1C87,56.2,87.1,56.9,87.3,57.7z
	 M170.6,118.1c0.6,0,1.1-0.1,1.7,0c2.2,0.3,2.9-0.6,2.9-2.9c-0.1-12.4,0-24.7,0-37.1c0-6.7,0-6.6-6.6-6.6c-2.1,0-2.5,0.8-2.5,2.7
	c0.1,10-0.1,20,0.1,30c0,2.8-1.4,4.2-3.6,5.2c-1.7,0.8-2.9,0.1-3-1.8c-0.1-1.7,0-3.4,0-5.1c0-9.7,0-19.3-0.1-29
	c0-0.6-0.8-1.8-1.2-1.8c-2.5-0.2-5-0.1-7.6-0.1c-0.1,0.9-0.2,1.6-0.2,2.2c0,11.1,0,22.3-0.1,33.4c0,1.9,0,3.8,0.2,5.6
	c0.6,4.6,3.8,6.8,8.1,5.4c2.5-0.8,4.8-2.5,7.2-3.9C166.3,118.1,166.3,118.1,170.6,118.1z"/>
</svg>
